# xmcd CD database file
#
# Track frame offsets:
#	150
#	32597
#	70023
#	102716
#	132355
#	183844
#	226223
#	258042
#	275027
#	319260
#
# Disc length: 4748 seconds
#
# Revision: 2
# Processed by: cddbd v1.4PL0 Copyright (c) Steve Scherf et al.
# Submitted via: CDex 1.51
#
DISCID=89128a0a
DTITLE=Hossam Ramzy - Gypsies of the Nile -  Rahhal 
DYEAR=2001
DGENRE=New Age
TTITLE0=yarit etjiny yaghaly
TTITLE1=wein erady
TTITLE2=nally addeit
TTITLE3=leit el ghally leya ye oud
TTITLE4=sharenty oyounha
TTITLE5=loumi ala leiyam - men kotr ghalak alaya
TTITLE6=min nar oyounik ya nesma
TTITLE7=la, la, la, omri manhounik
TTITLE8=weinak ya awwal habib
TTITLE9=gypsy dance
EXTD=YEAR: 2001
EXTT0=
EXTT1=
EXTT2=
EXTT3=
EXTT4=
EXTT5=
EXTT6=
EXTT7=
EXTT8=
EXTT9=
PLAYORDER=
